<svg xmlns="http://www.w3.org/2000/svg" xmlns:xlink="http://www.w3.org/1999/xlink" width="52" height="68" viewBox="0 0 52 68">
 <defs>
  <filter id="패스_27599" x="0" y="0" width="52" height="68" filterUnits="userSpaceOnUse">
  <feOffset dy="2" input="SourceAlpha"/>
  <feGaussianBlur stdDeviation="1" result="blur"/>
  <feFlood flood-opacity="0.161"/>
  <feComposite operator="in" in2="blur"/>
  <feComposite in="SourceGraphic"/>
  </filter>
  <filter id="패스_27613" x="4.272" y="22.696" width="44.135" height="26.47" filterUnits="userSpaceOnUse">
  <feOffset dy="3" input="SourceAlpha"/>
  <feGaussianBlur stdDeviation="3" result="blur-2"/>
  <feFlood flood-opacity="0.161"/>
  <feComposite operator="in" in2="blur-2"/>
  <feComposite in="SourceGraphic"/>
  </filter>
 </defs>
 <g id="그룹_14704" data-name="그룹 14704" transform="translate(303 33)">
  <g transform="matrix(1, 0, 0, 1, -303, -33)" filter="url(#패스_27599)">
  <path id="패스_27599-2" data-name="패스 27599" d="M23,0A22.907,22.907,0,0,0,0,22.81C0,42.7,23,62,23,62S46,43.282,46,22.81A22.9,22.9,0,0,0,23,0Z" transform="translate(3 1)" fill="#3d3c3c"/>
  </g>
  <g id="그룹_14702" data-name="그룹 14702" transform="translate(-289.728 -21.508)">
  <path id="패스_27600" data-name="패스 27600" d="M0,0H23.205V12.532a4.625,4.625,0,0,1-4.621,4.621H4.621A4.625,4.625,0,0,1,0,12.532V0Z" transform="translate(24.673 19.878) rotate(180)" fill="#ff5c5c"/>
  <path id="패스_27601" data-name="패스 27601" d="M0,0H20.184V11.892a3.328,3.328,0,0,1-3.326,3.326H3.326A3.328,3.328,0,0,1,0,11.892V0H0Z" transform="translate(23.16 19.878) rotate(180)" fill="#dd4a4a"/>
  <g id="그룹_14701" data-name="그룹 14701" transform="translate(5.299 0)">
   <path id="패스_27602" data-name="패스 27602" d="M45.325,47.88a5.4,5.4,0,1,0,5.7,5.39A5.552,5.552,0,0,0,45.325,47.88Z" transform="translate(-37.546 -40.146)" fill="none"/>
   <path id="패스_27603" data-name="패스 27603" d="M51.988,42.45H51.97l.009.018Z" transform="translate(-38.801 -39.593)" fill="#ffc82e"/>
   <path id="패스_27604" data-name="패스 27604" d="M38.99,42.58,39,42.6l.018-.018Z" transform="translate(-37.481 -39.607)" fill="#ffc82e"/>
   <path id="패스_27605" data-name="패스 27605" d="M48.713,45.81l1.94-3.665-3.3.036h0l-4.42.045,2.147-2.955H41.625l1.3,2.955-3.908.045,2.264,3.818a8.142,8.142,0,0,1,7.447-.269Z" transform="translate(-37.484 -39.27)" fill="#fff"/>
   <path id="패스_27606" data-name="패스 27606" d="M48.539,46.463a8.035,8.035,0,0,0-3.458-.773,8.14,8.14,0,0,0-3.988,1.042,7.28,7.28,0,0,0-3.782,6.306,7.773,7.773,0,0,0,15.523,0,7.33,7.33,0,0,0-4.312-6.576ZM45.08,58.428a5.4,5.4,0,1,1,5.7-5.39A5.552,5.552,0,0,1,45.08,58.428Z" transform="translate(-37.31 -39.923)" fill="#f2de4e"/>
   <path id="패스_27607" data-name="패스 27607" d="M41.613,39.28h0l-2.6,2.964L39,42.262l-.009.009h.018l3.908-.036Z" transform="translate(-37.481 -39.271)" fill="#b4efef"/>
   <path id="패스_27608" data-name="패스 27608" d="M43.37,42.235l4.429-.054h0l-2.246-2.9h-.036Z" transform="translate(-37.926 -39.271)" fill="#b4efef"/>
   <path id="패스_27609" data-name="패스 27609" d="M48.3,42.51h0Z" transform="translate(-38.428 -39.6)" fill="#f4a654"/>
   <path id="패스_27610" data-name="패스 27610" d="M48.3,42.183h.009l3.288-.027h.018l-.009-.009-.009-.018L49.423,39.29Z" transform="translate(-38.428 -39.272)" fill="#b4efef"/>
   <path id="패스_27611" data-name="패스 27611" d="M48.046,42.182l1.123-2.893V39.28H45.8Z" transform="translate(-38.173 -39.271)" fill="#fff"/>
  </g>
  <path id="패스_27612" data-name="패스 27612" d="M0,0H20.621V2.214a3.169,3.169,0,0,1-3.169,3.169H3.169A3.169,3.169,0,0,1,0,2.214V0Z" transform="translate(23.383 18.727) rotate(180)" fill="#f4f2f2"/>
  <g transform="matrix(1, 0, 0, 1, -13.27, -11.49)" filter="url(#패스_27613)">
   <path id="패스_27613-2" data-name="패스 27613" d="M20.23,64.39H46.365v3.849a4.625,4.625,0,0,1-4.621,4.621H24.851a4.625,4.625,0,0,1-4.621-4.621V64.39Z" transform="translate(-6.96 -35.69)" fill="#ff5c5c"/>
  </g>
  </g>
 </g>
</svg>