<svg xmlns="http://www.w3.org/2000/svg" width="130.143" height="71.31" viewBox="0 0 130.143 71.31">
  <g id="_23년" data-name="23년" transform="translate(1)">
    <path id="_2" data-name="2" d="M.9,66.031a25.819,25.819,0,0,0-.6,4.482H0C1.494,51.49,15.636,43.622,27.687,35.954c8.665-5.478,18.325-14.541,18.325-27.19C46.012,4.084,44.22.2,37.945.2,31.073.2,25.9,5.179,25.9,11.752a6.053,6.053,0,0,0,3.187,5.578,11.473,11.473,0,0,1-11.255,8.963c-5.577,0-8.764-3.087-8.764-8.167C9.063,3.785,28.384,0,37.945,0,56.769,0,65.931,5.378,65.931,14.541c0,10.955-11.055,20.118-29.081,24.2C22.11,42.029,10.557,44.021,3.585,57.864h.1C7.768,49.7,13.943,47.009,21.313,47.009c9.76,0,19.122,6.473,29.679,6.473,5.777,0,9.561-1.792,11.354-6.573h.1c-3.784,11.653-9.262,24.4-22.408,24.4C28.783,71.31,3.486,58.96.9,66.031" transform="translate(-1)"/>
    <path id="_3" data-name="3" d="M64.34,57.367a12.1,12.1,0,0,1,12.051-12.35c4.88,0,8.864,3.187,8.366,8.964a9.6,9.6,0,0,0-5.478,8.963c0,4.781,3.386,8.167,9.561,8.167,7.669,0,13.445-11.055,13.445-25.4,0-6.574-2.29-11.952-10.756-11.952H88.243v-.2H91.33c9.262,0,16.831-10.557,16.831-23.6,0-5.876-2.39-9.76-7.369-9.76-7.57,0-11.554,5.876-11.554,10.258a5.571,5.571,0,0,0,3.088,5.179A10.693,10.693,0,0,1,81.769,24c-4.183,0-7.968-2.291-7.968-7.569C73.8,6.375,84.259,0,100.891,0c13.545,0,26.592,2.39,26.592,13.146,0,12.051-11.852,19.521-32.866,20.417v.1c14.441,0,29.28,2.29,29.28,14.54,0,13.944-13.943,23.106-35.057,23.106-8.067,0-24.5-2.091-24.5-13.943" transform="translate(1.66)"/>
  </g>
</svg>
