<svg xmlns="http://www.w3.org/2000/svg" width="117.856" height="71.306" viewBox="0 0 117.856 71.306">
  <g id="_18일" data-name="18일" transform="translate(4.357 -256.234)">
    <path id="_1" data-name="1" d="M37.8,308.82c-1.792,11.453-2.988,17.827,7.868,17.827v.1H3.643v-.1c10.856,0,11.653-6.175,13.545-17.827l5.373-33.735a52.719,52.719,0,0,1-12.244,9.83l-.1-.2c11.253-6.274,19.918-18.425,24.8-27.687H45.972Z" transform="translate(-8)"/>
    <path id="_8" data-name="8" d="M99.19,284.218c7.118,3.981,13.311,9.017,13.311,17.527,0,15.039-14.54,25.8-34.758,25.8-11.155,0-25.1-3.884-25.1-14.142,0-7.454,6.472-14.618,16.751-18.638-4.773-3.545-8.285-8.04-8.285-14.524,0-13.644,13.246-24,30.874-24,7.569,0,20.018,2.988,20.018,11.851,0,5.307-4.392,10.987-12.814,16.134ZM77.746,327.341c10.059,0,17.529-5.577,17.529-13.047,0-8.753-15.617-12-25.733-19.429-6.766,3.751-11.116,10.549-11.116,17.537,0,8.864,8.963,14.939,19.321,14.939ZM91.989,256.43c-7.868,0-13.744,4.979-13.744,11.453,0,7.448,11.161,10.9,20.744,16.22,4.83-4.068,8.037-9.885,8.037-15.522,0-6.573-5.08-12.15-15.039-12.15Z" transform="translate(0.998)"/>
  </g>
</svg>
