<svg xmlns="http://www.w3.org/2000/svg" width="131.931" height="71.31" viewBox="0 0 131.931 71.31">
  <g id="_02월" data-name="02월" transform="translate(-9.919 -124.232)">
    <path id="_0" data-name="0" d="M8.919,166.76c0-23.4,17.727-42.527,39.239-42.527,17.629,0,27.987,12.15,27.987,28.783,0,23.4-17.728,42.526-39.241,42.526-17.628,0-27.985-12.15-27.985-28.782M55.13,138.475c0-9.362-2.191-14.043-6.972-14.043-8.764,0-18.225,29.58-18.225,56.868,0,9.362,2.191,14.043,6.971,14.043,8.765,0,18.226-29.579,18.226-56.868" transform="translate(1)"/>
    <path id="_2" data-name="2" d="M75.651,190.263a25.818,25.818,0,0,0-.6,4.482h-.3c1.494-19.023,15.636-26.891,27.687-34.559,8.665-5.478,18.325-14.541,18.325-27.19,0-4.68-1.792-8.565-8.067-8.565-6.872,0-12.05,4.98-12.05,11.553a6.053,6.053,0,0,0,3.187,5.578,11.473,11.473,0,0,1-11.255,8.963c-5.577,0-8.764-3.087-8.764-8.167,0-14.341,19.321-18.126,28.882-18.126,18.824,0,27.986,5.378,27.986,14.541,0,10.955-11.055,20.118-29.081,24.2-14.74,3.287-26.293,5.279-33.265,19.122h.1c4.083-8.166,10.258-10.855,17.628-10.855,9.76,0,19.122,6.473,29.679,6.473,5.777,0,9.561-1.792,11.354-6.573h.1c-3.784,11.653-9.262,24.4-22.408,24.4-11.254,0-36.551-12.35-39.141-5.279" transform="translate(1.164)"/>
  </g>
</svg>
